<?xml version="1.0" encoding="UTF-8" standalone="no"?>
<svg
   xmlns:dc="http://purl.org/dc/elements/1.1/"
   xmlns:cc="http://creativecommons.org/ns#"
   xmlns:rdf="http://www.w3.org/1999/02/22-rdf-syntax-ns#"
   xmlns:svg="http://www.w3.org/2000/svg"
   xmlns="http://www.w3.org/2000/svg"
   xmlns:sodipodi="http://sodipodi.sourceforge.net/DTD/sodipodi-0.dtd"
   xmlns:inkscape="http://www.inkscape.org/namespaces/inkscape"
   width="2247.5024"
   height="531.49609"
   viewBox="0 0 294 90"
   id="svg2"
   sodipodi:version="0.32"
   inkscape:version="0.46"
   sodipodi:docname="barcamp_stencil.svg"
   inkscape:output_extension="org.inkscape.output.svg.inkscape"
   version="1.0"
   inkscape:export-filename="/home/neyder/Documentos/cclup/barcamp/barcamp_stencil.png"
   inkscape:export-xdpi="70"
   inkscape:export-ydpi="70">
  <metadata
     id="metadata51">
    <rdf:RDF>
      <cc:Work
         rdf:about="">
        <dc:format>image/svg+xml</dc:format>
        <dc:type
           rdf:resource="http://purl.org/dc/dcmitype/StillImage" />
      </cc:Work>
    </rdf:RDF>
  </metadata>
  <defs
     id="defs49">
    <inkscape:perspective
       sodipodi:type="inkscape:persp3d"
       inkscape:vp_x="0 : 56.25 : 1"
       inkscape:vp_y="0 : 1000 : 0"
       inkscape:vp_z="367.5 : 56.25 : 1"
       inkscape:persp3d-origin="183.75 : 37.5 : 1"
       id="perspective53" />
    <inkscape:perspective
       id="perspective2433"
       inkscape:persp3d-origin="372.04724 : 350.78739 : 1"
       inkscape:vp_z="744.09448 : 526.18109 : 1"
       inkscape:vp_y="0 : 1000 : 0"
       inkscape:vp_x="0 : 526.18109 : 1"
       sodipodi:type="inkscape:persp3d" />
  </defs>
  <sodipodi:namedview
     inkscape:window-height="975"
     inkscape:window-width="1278"
     inkscape:pageshadow="2"
     inkscape:pageopacity="0.0"
     guidetolerance="10"
     gridtolerance="10"
     objecttolerance="10"
     borderopacity="1.0"
     bordercolor="#666666"
     pagecolor="#ffffff"
     id="base"
     showgrid="false"
     units="mm"
     inkscape:zoom="0.37241339"
     inkscape:cx="1209.954"
     inkscape:cy="265.74805"
     inkscape:window-x="0"
     inkscape:window-y="20"
     inkscape:current-layer="svg2"
     showguides="true"
     inkscape:guide-bbox="true"
     inkscape:object-nodes="true"
     inkscape:object-paths="true"
     inkscape:snap-guide="true"
     inkscape:snap-intersection-line-segments="true">
    <sodipodi:guide
       orientation="0,1"
       position="921.78419,531.49606"
       id="guide2416" />
    <sodipodi:guide
       orientation="1,0"
       position="2247.5197,-218.49699"
       id="guide2418" />
  </sodipodi:namedview>
  <g
     transform="matrix(1.3605144,0,0,1.3605144,-43.288529,-10.869557)"
     style="fill:#467cbc;fill-rule:nonzero;stroke:none;stroke-width:1;stroke-linecap:butt;stroke-linejoin:miter;stroke-dasharray:none;fill-opacity:1"
     id="g4">
    <path
       d="M 34.5909,35.5508 C 38.7022,33.8369 38.8662,27.2998 37.0401,23.8906 C 34.5909,19.3183 28.4073,20.0781 24.2325,21.2715 C 25.3897,17.9472 27.5127,13.4062 31.3467,12.75 C 35.1534,12.0986 38.8799,14.4619 42.1905,15.9931 C 45.1465,17.3623 50.3438,19.0801 52.4786,15.3457 C 53.127,13.7695 51.2012,12.4707 49.5127,11.3994 C 47.8282,10.3291 46.0342,9.30372 44.1612,8.60152 C 84.7119,0 85.8301,85.081 42.9004,72.9551 C 39.8008,72.081 36.8194,70.8213 33.9502,69.3672 C 37.959,69.7002 42.2774,69.2754 45.4854,66.6748 C 48.2325,64.4482 49.6827,59.8037 45.1563,58.7246 C 41.0879,57.7549 36.6573,60.2324 32.6446,60.5732 C 27.5918,61.0019 23.2832,61.1289 20.4102,57.1445 C 22.6338,56.8672 24.3555,56.2754 25.2286,55.6435 C 26.7403,54.5508 28.2051,53.0205 28.3379,51.0713 C 28.5948,47.3408 25.7286,43.8467 22.5186,42.2578 C 21.0342,41.5244 19.2578,41.2627 17.6543,41.7353 C 15.5889,42.3447 14.9932,44.1269 13.5469,45.4971 C 12.1309,46.8379 10.8086,47.8193 8.85747,48.209 C 6.58207,48.6113 4.38277,47.5185 2.62989,46.1601 C 1.67188,45.415 0.85645,44.5137 0,43.6572 C 3.65821,44.1797 8.53517,45.123 10.6787,41.0185 C 12.4024,37.7168 10.3565,33.9629 12.1787,30.6221 C 14.5196,26.334 20.459,29.6943 23.376,31.3789 C 26.7227,33.3125 30.0547,37.4394 34.5909,35.5508 z"
       id="path6"
       style="fill:#467cbc;fill-opacity:1" />
  </g>
  <g
     transform="matrix(1.3605144,0,0,1.3605144,70.788791,20.964323)"
     style="fill:#467cbc;fill-rule:nonzero;stroke:none;stroke-width:1;stroke-linecap:butt;stroke-linejoin:miter;stroke-dasharray:none;fill-opacity:1"
     id="g20">
    <path
       d="M 6.2177,0 C 6.2177,0 6.2177,12.3955 6.2177,12.3955 C 7.3506,11.2637 8.5752,10.4151 9.8906,9.8487 C 11.2056,9.2832 12.6146,9 14.1146,9 C 17.3736,9 20.1426,10.2305 22.4236,12.6904 C 24.7026,15.1494 25.8426,18.3057 25.8426,22.1553 C 25.8426,25.8682 24.6636,28.9737 22.3086,31.4717 C 19.9516,33.9697 17.1596,35.2188 13.9306,35.2188 C 12.4926,35.2188 11.1536,34.9629 9.9131,34.4512 C 8.6748,33.9385 7.4424,33.1016 6.2177,31.9395 C 6.2177,31.9395 6.2177,34.5938 6.2177,34.5938 C 6.2177,34.5938 0,34.5938 0,34.5938 C 0,34.5938 0,0 0,0 C 0,0 6.2177,0 6.2177,0 z M 12.7996,14.7813 C 10.8266,14.7813 9.1884,15.4531 7.8877,16.7949 C 6.5869,18.1367 5.9375,19.8906 5.9375,22.0567 C 5.9375,24.2676 6.5869,26.0567 7.8877,27.4219 C 9.1884,28.7871 10.8266,29.4688 12.7996,29.4688 C 14.7116,29.4688 16.3226,28.7754 17.6306,27.3867 C 18.9386,26 19.5926,24.2305 19.5926,22.0791 C 19.5926,19.9444 18.9506,18.1944 17.6646,16.8291 C 16.3796,15.4639 14.7576,14.7813 12.7996,14.7813 z"
       id="path22"
       style="fill:#467cbc;fill-opacity:1" />
  </g>
  <g
     transform="matrix(1.3605144,0,0,1.3605144,108.90578,33.208953)"
     style="fill:#467cbc;fill-rule:nonzero;stroke:none;stroke-width:1;stroke-linecap:butt;stroke-linejoin:miter;stroke-dasharray:none;fill-opacity:1"
     id="g24">
    <path
       d="M 19.594,0.625 C 19.594,0.625 25.844,0.625 25.844,0.625 C 25.844,0.625 25.844,25.5938 25.844,25.5938 C 25.844,25.5938 19.594,25.5938 19.594,25.5938 C 19.594,25.5938 19.594,22.9395 19.594,22.9395 C 18.37,24.1016 17.143,24.9385 15.911,25.4512 C 14.68,25.9629 13.346,26.2188 11.908,26.2188 C 8.68,26.2188 5.889,24.9697 3.533,22.4717 C 1.178,19.9737 0,16.8682 0,13.1553 C 0,9.3057 1.139,6.1494 3.418,3.6904 C 5.697,1.2305 8.467,0 11.725,0 C 13.223,0 14.63,0.2822 15.946,0.8467 C 17.262,1.4112 18.477,2.2578 19.594,3.3867 C 19.594,3.3867 19.594,0.625 19.594,0.625 z M 13.005,5.7813 C 11.066,5.7813 9.455,6.4639 8.173,7.8291 C 6.892,9.1944 6.25,10.9444 6.25,13.0791 C 6.25,15.2305 6.902,17 8.208,18.3867 C 9.513,19.7754 11.12,20.4688 13.028,20.4688 C 14.997,20.4688 16.63,19.7871 17.929,18.4219 C 19.226,17.0567 19.875,15.2676 19.875,13.0567 C 19.875,10.8906 19.226,9.1367 17.929,7.7949 C 16.63,6.4531 14.989,5.7813 13.005,5.7813 z"
       id="path26"
       style="fill:#467cbc;fill-opacity:1" />
  </g>
  <g
     transform="matrix(1.3605144,0,0,1.3605144,149.04504,33.208953)"
     style="fill:#467cbc;fill-rule:nonzero;stroke:none;stroke-width:1;stroke-linecap:butt;stroke-linejoin:miter;stroke-dasharray:none;fill-opacity:1"
     id="g28">
    <path
       d="M 0,0.625 C 0,0.625 5.376,0.625 5.376,0.625 C 5.376,0.625 5.376,3.7901 5.376,3.7901 C 5.956,2.5498 6.729,1.6084 7.692,0.9649 C 8.657,0.3223 9.712,0 10.86,0 C 11.671,0 12.518,0.2149 13.407,0.6445 C 13.407,0.6445 11.454,6.0498 11.454,6.0498 C 10.72,5.6836 10.116,5.5 9.642,5.5 C 8.677,5.5 7.86,6.0957 7.194,7.2871 C 6.528,8.4785 6.196,10.8164 6.196,14.2988 C 6.196,14.2988 6.22,15.5127 6.22,15.5127 C 6.22,15.5127 6.22,25.5938 6.22,25.5938 C 6.22,25.5938 0,25.5938 0,25.5938 C 0,25.5938 0,0.625 0,0.625 z"
       id="path30"
       style="fill:#467cbc;fill-opacity:1" />
  </g>
  <g
     transform="matrix(1.3605144,0,0,1.3605144,168.31945,33.208953)"
     style="fill:#88b4e7;fill-rule:nonzero;stroke:none;stroke-width:1;stroke-linecap:butt;stroke-linejoin:miter;stroke-dasharray:none;fill-opacity:1"
     id="g32">
    <path
       d="M 25.437,5.8233 C 25.437,5.8233 22.891,7.4063 22.891,7.4063 C 20.687,4.4903 17.683,3.0313 13.877,3.0313 C 10.834,3.0313 8.307,4.0069 6.297,5.959 C 4.285,7.9112 3.281,10.2813 3.281,13.0723 C 3.281,14.8867 3.744,16.5947 4.668,18.1953 C 5.594,19.7969 6.861,21.0391 8.475,21.9238 C 10.088,22.8086 11.896,23.25 13.9,23.25 C 17.568,23.25 20.566,21.792 22.891,18.875 C 22.891,18.875 25.437,20.5508 25.437,20.5508 C 24.242,22.3477 22.637,23.7422 20.623,24.7324 C 18.607,25.7227 16.314,26.2188 13.74,26.2188 C 9.789,26.2188 6.51,24.9668 3.906,22.461 C 1.301,19.9551 0,16.9063 0,13.3154 C 0,10.9014 0.609,8.6592 1.826,6.5889 C 3.045,4.5186 4.719,2.9024 6.848,1.7412 C 8.976,0.5811 11.359,0 13.994,0 C 15.648,0 17.244,0.2529 18.785,0.7569 C 20.324,1.2608 21.631,1.919 22.703,2.7276 C 23.775,3.5381 24.685,4.5694 25.437,5.8233 z"
       id="path34"
       style="fill:#88b4e7;fill-opacity:1" />
  </g>
  <g
     transform="matrix(1.3605144,0,0,1.3605144,204.69417,33.208953)"
     style="fill:#88b4e7;fill-rule:nonzero;stroke:none;stroke-width:1;stroke-linecap:butt;stroke-linejoin:miter;stroke-dasharray:none;fill-opacity:1"
     id="g36">
    <path
       d="M 25.969,0.625 C 25.969,0.625 25.969,25.5938 25.969,25.5938 C 25.969,25.5938 22.813,25.5938 22.813,25.5938 C 22.813,25.5938 22.813,21.3028 22.813,21.3028 C 21.467,22.9395 19.957,24.168 18.283,24.9883 C 16.61,25.8086 14.78,26.2188 12.793,26.2188 C 9.262,26.2188 6.248,24.9395 3.748,22.3799 C 1.25,19.8203 0,16.707 0,13.041 C 0,9.4502 1.26,6.3789 3.783,3.8281 C 6.305,1.2764 9.338,0 12.885,0 C 14.934,0 16.787,0.4326 18.446,1.2988 C 20.104,2.1651 21.559,3.4707 22.813,5.2149 C 22.813,5.2149 22.813,0.625 22.813,0.625 C 22.813,0.625 25.969,0.625 25.969,0.625 z M 13.153,3.0938 C 11.369,3.0938 9.725,3.5322 8.217,4.4092 C 6.709,5.2862 5.508,6.5186 4.617,8.1035 C 3.727,9.6904 3.281,11.3682 3.281,13.1377 C 3.281,14.8916 3.731,16.5694 4.629,18.1709 C 5.528,19.7725 6.735,21.0195 8.25,21.9121 C 9.766,22.8047 11.393,23.25 13.129,23.25 C 14.881,23.25 16.541,22.8086 18.11,21.9238 C 19.68,21.0391 20.887,19.8418 21.733,18.3311 C 22.576,16.8213 23,15.1211 23,13.2285 C 23,10.3457 22.051,7.9365 20.155,5.999 C 18.258,4.0625 15.924,3.0938 13.153,3.0938 z"
       id="path38"
       style="fill:#88b4e7;fill-opacity:1" />
  </g>
  <g
     transform="matrix(1.3605144,0,0,1.3605144,245.6987,33.208953)"
     style="fill:#88b4e7;fill-rule:nonzero;stroke:none;stroke-width:1;stroke-linecap:butt;stroke-linejoin:miter;stroke-dasharray:none;fill-opacity:1"
     id="g40">
    <path
       d="M 0,0.625 C 0,0.625 3.219,0.625 3.219,0.625 C 3.219,0.625 3.219,4.9395 3.219,4.9395 C 4.338,3.3487 5.486,2.1856 6.666,1.4512 C 8.289,0.4844 9.998,0 11.791,0 C 13,0 14.148,0.2373 15.236,0.711 C 16.324,1.1865 17.213,1.8164 17.902,2.6055 C 18.592,3.3936 19.189,4.5205 19.695,5.9903 C 20.764,4.0322 22.098,2.544 23.701,1.5264 C 25.303,0.5088 27.027,0 28.875,0 C 30.6,0 32.121,0.4365 33.441,1.3067 C 34.762,2.1787 35.742,3.3945 36.383,4.9531 C 37.023,6.5137 37.344,8.8526 37.344,11.9707 C 37.344,11.9707 37.344,25.5938 37.344,25.5938 C 37.344,25.5938 34.062,25.5938 34.062,25.5938 C 34.062,25.5938 34.062,11.9746 34.062,11.9746 C 34.062,9.2998 33.873,7.4619 33.492,6.461 C 33.109,5.46 32.459,4.6533 31.535,4.042 C 30.613,3.4307 29.512,3.125 28.232,3.125 C 26.676,3.125 25.254,3.584 23.967,4.501 C 22.678,5.418 21.736,6.6406 21.142,8.1699 C 20.547,9.6973 20.25,12.25 20.25,15.8262 C 20.25,15.8262 20.25,25.5938 20.25,25.5938 C 20.25,25.5938 17.031,25.5938 17.031,25.5938 C 17.031,25.5938 17.031,12.8233 17.031,12.8233 C 17.031,9.8125 16.844,7.7686 16.469,6.6904 C 16.094,5.6123 15.441,4.749 14.508,4.0996 C 13.574,3.4502 12.467,3.125 11.182,3.125 C 9.697,3.125 8.308,3.5723 7.017,4.4658 C 5.725,5.3613 4.767,6.5645 4.148,8.0781 C 3.529,9.5908 3.219,11.9063 3.219,15.0244 C 3.219,15.0244 3.219,25.5938 3.219,25.5938 C 3.219,25.5938 0,25.5938 0,25.5938 C 0,25.5938 0,0.625 0,0.625 z"
       id="path42"
       style="fill:#88b4e7;fill-opacity:1" />
  </g>
  <g
     transform="matrix(1.3605144,0,0,1.3605144,301.91516,33.208953)"
     style="fill:#88b4e7;fill-rule:nonzero;stroke:none;stroke-width:1;stroke-linecap:butt;stroke-linejoin:miter;stroke-dasharray:none;fill-opacity:1"
     id="g44">
    <path
       d="M 0,0.625 C 0,0.625 3.219,0.625 3.219,0.625 C 3.219,0.625 3.219,5.2149 3.219,5.2149 C 4.488,3.4707 5.947,2.1651 7.598,1.2988 C 9.246,0.4326 11.088,0 13.121,0 C 16.666,0 19.697,1.2764 22.219,3.8281 C 24.74,6.3789 26,9.4502 26,13.041 C 26,16.707 24.752,19.8203 22.254,22.3799 C 19.756,24.9395 16.742,26.2188 13.213,26.2188 C 11.227,26.2188 9.401,25.8057 7.735,24.9795 C 6.069,24.1533 4.565,22.9219 3.219,21.2852 C 3.219,21.2852 3.219,34.7188 3.219,34.7188 C 3.219,34.7188 0,34.7188 0,34.7188 C 0,34.7188 0,0.625 0,0.625 z M 12.85,3.0938 C 10.076,3.0938 7.742,4.0625 5.846,5.999 C 3.949,7.9365 3,10.3457 3,13.2285 C 3,15.1211 3.424,16.8213 4.27,18.3311 C 5.113,19.8418 6.324,21.0391 7.903,21.9238 C 9.479,22.8086 11.143,23.25 12.895,23.25 C 14.615,23.25 16.235,22.8047 17.75,21.9121 C 19.266,21.0195 20.473,19.7725 21.371,18.1709 C 22.27,16.5694 22.719,14.8916 22.719,13.1377 C 22.719,11.3682 22.274,9.6904 21.383,8.1035 C 20.492,6.5186 19.291,5.2862 17.783,4.4092 C 16.276,3.5322 14.631,3.0938 12.85,3.0938 z"
       id="path46"
       style="fill:#88b4e7;fill-opacity:1" />
  </g>
  <g
     id="g3229"
     transform="matrix(0.7062437,0,0,0.7062437,-208.2271,-3.5212272)">
    <path
       sodipodi:nodetypes="cczszzss"
       id="path2449"
       d="M 306.27762,81.263171 C 307.18364,76.53371 297.28145,77.941491 300.87124,83.286707 C 318.84074,105.94594 362.23184,92.149915 368.1993,88.505077 C 374.16676,84.86024 373.26483,71.961358 369.07743,72.227324 C 362.39896,72.651512 369.28841,80.563708 367.11023,81.36995 C 364.93205,82.176193 366.60874,81.981533 360.36562,81.984866 C 354.12251,81.9882 320.84014,82.094126 308.95067,83.585544 C 307.38628,83.781782 305.76865,83.920034 306.27762,81.263171 z"
       style="fill:#ffffff;fill-rule:evenodd;stroke:#ffffff;stroke-width:1px;stroke-linecap:butt;stroke-linejoin:miter;stroke-opacity:1" />
    <path
       sodipodi:nodetypes="ccccc"
       id="rect2452"
       d="M 325.18691,35.616493 C 338.03372,34.798544 349.96166,35.697224 360.74548,36.616535 C 355.10512,50.42638 347.65416,63.937503 346.35355,81.173932 C 338.65944,79.892023 331.15264,78.430194 321.09645,78.284923 C 313.73381,72.551985 323.36937,41.795329 325.18691,35.616493 z"
       style="fill:#ffffff;fill-opacity:1;stroke:#ffffff;stroke-width:0.63425773;stroke-linecap:round;stroke-linejoin:round;stroke-miterlimit:3.29999995;stroke-opacity:1" />
    <path
       sodipodi:nodetypes="cc"
       id="path3225"
       d="M 345.26178,34.302133 C 332.68637,57.279642 334.34276,68.958876 331.94733,84.52265"
       style="fill:none;fill-rule:evenodd;stroke:#ffffff;stroke-width:3.15336633;stroke-linecap:round;stroke-linejoin:miter;stroke-miterlimit:4;stroke-dasharray:none;stroke-opacity:1" />
  </g>
  <g
     id="g3234"
     transform="matrix(1.3605144,0,0,1.3605144,-37.516862,-17.932917)"
     style="fill:#467cbc;fill-opacity:1">
    <g
       id="g8"
       style="fill:#467cbc;fill-opacity:1;fill-rule:nonzero;stroke:none;stroke-width:1;stroke-linecap:butt;stroke-linejoin:miter;stroke-dasharray:none"
       transform="matrix(0.5389413,0,0,0.5389413,43.543213,34.016692)">
      <path
         style="fill:#467cbc;fill-opacity:1"
         id="path10"
         d="M 2.9394,23.3554 C 5.25,20.0029 6.4716,16.0791 6.4716,12.0078 C 6.4716,8.0244 5.3017,4.1728 3.0878,0.8711 C 2.6269,0.1836 1.6953,0 1.0068,0.4599 C 0.3183,0.9218 0.1347,1.8545 0.5957,2.542 C 2.4775,5.3476 3.4716,8.6211 3.4716,12.0078 C 3.4716,15.4677 2.4336,18.8027 0.4697,21.6523 C 0,22.3349 0.1709,23.2685 0.8535,23.7392 C 1.5351,24.2089 2.4697,24.0371 2.9394,23.3554 z" />
    </g>
    <g
       id="g12"
       style="fill:#467cbc;fill-opacity:1;fill-rule:nonzero;stroke:none;stroke-width:1;stroke-linecap:butt;stroke-linejoin:miter;stroke-dasharray:none"
       transform="matrix(0.5389413,0,0,0.5389413,46.664222,31.910402)">
      <path
         style="fill:#467cbc;fill-opacity:1"
         id="path14"
         d="M 2.9394,31.248 C 6.0586,26.7236 7.707,21.4218 7.707,15.916 C 7.707,10.5322 6.1269,5.3291 3.1386,0.8711 C 2.6767,0.1836 1.7451,0 1.0566,0.4609 C 0.3681,0.9218 0.1845,1.8545 0.6465,2.542 C 3.3027,6.5048 4.707,11.1289 4.707,15.916 C 4.707,20.8115 3.2422,25.5244 0.4707,29.5449 C 0,30.2275 0.1718,31.1611 0.8545,31.6318 C 1.5351,32.1015 2.4697,31.9296 2.9394,31.248 z" />
    </g>
    <g
       id="g16"
       style="fill:#467cbc;fill-opacity:1;fill-rule:nonzero;stroke:none;stroke-width:1;stroke-linecap:butt;stroke-linejoin:miter;stroke-dasharray:none"
       transform="matrix(0.5389413,0,0,0.5389413,49.641549,29.899881)">
      <path
         style="fill:#467cbc;fill-opacity:1"
         id="path18"
         d="M 0.6953,2.543 C 4.0928,7.6103 5.8887,13.5244 5.8887,19.6465 C 5.8887,25.9053 4.0146,31.9326 0.4707,37.0762 C 0,37.7588 0.1719,38.6924 0.8545,39.1631 C 1.5361,39.6328 2.4707,39.4609 2.9394,38.7793 C 6.832,33.1318 8.8887,26.5166 8.8887,19.6465 C 8.8887,12.9267 6.918,6.4346 3.1865,0.8721 C 2.7256,0.1836 1.793,0 1.1055,0.4609 C 0.418,0.9228 0.2344,1.8545 0.6953,2.543 z" />
    </g>
  </g>
  <path
     style="font-size:24.38399886999999921px;font-style:normal;font-variant:normal;font-weight:normal;font-stretch:normal;text-align:start;line-height:100%;writing-mode:lr-tb;text-anchor:start;fill:#467cbc;fill-opacity:1;stroke:none;stroke-width:1px;stroke-linecap:butt;stroke-linejoin:miter;stroke-opacity:1;font-family:URW Gothic L;-inkscape-font-specification:URW Gothic L Book"
     d="M 246.02945,23.467468 L 247.83386,23.467468 L 247.83386,16.176653 L 251.29639,16.176653 C 253.73479,16.176653 255.05153,15.85966 256.14881,15.054989 C 257.31924,14.20155 257.95322,12.714123 257.95322,10.909709 C 257.95322,8.8370707 257.17293,7.2033407 255.80743,6.3986697 C 254.68577,5.7159177 253.32026,5.4476937 251.00378,5.4476937 L 246.02945,5.4476937 L 246.02945,23.467468 M 247.83386,14.542925 L 247.83386,7.0814207 L 250.39418,7.0814207 C 252.46682,7.0814207 253.75918,7.2521097 254.4907,7.6178687 C 255.53921,8.1543167 256.12442,9.3003667 256.12442,10.909709 C 256.12442,12.299596 255.56359,13.421262 254.637,13.933325 C 253.8811,14.372236 252.83258,14.542925 251.17447,14.542925 L 247.83386,14.542925 M 267.22257,5.4476937 L 267.22257,16.688717 C 267.22257,19.005194 267.58833,20.370702 268.49054,21.565517 C 269.56343,22.955403 271.36785,23.78446 273.34295,23.78446 C 275.34244,23.78446 277.14686,22.955403 278.21975,21.565517 C 279.12196,20.370702 279.48772,19.005194 279.48772,16.688717 L 279.48772,5.4476937 L 277.68331,5.4476937 L 277.68331,16.688717 C 277.68331,18.322443 277.41508,19.566029 276.85425,20.419469 C 276.1715,21.46798 274.83038,22.126349 273.36734,22.126349 C 271.87992,22.126349 270.53879,21.46798 269.85604,20.419469 C 269.29521,19.566029 269.02699,18.322443 269.02699,16.688717 L 269.02699,5.4476937 L 267.22257,5.4476937 M 289.9397,23.467468 L 291.74411,23.467468 L 291.74411,7.6178687 L 302.47307,23.467468 L 304.27749,23.467468 L 304.27749,5.4476937 L 302.47307,5.4476937 L 302.47307,20.395085 L 292.3781,5.4476937 L 289.9397,5.4476937 L 289.9397,23.467468 M 323.50617,5.1307017 C 318.33677,5.1307017 313.97203,9.3491377 313.97203,14.347853 C 313.97203,19.590407 318.21485,23.78446 323.50617,23.78446 C 328.72434,23.78446 333.01593,19.566024 333.01593,14.469773 C 333.01593,9.3247547 328.72434,5.1307017 323.50617,5.1307017 M 323.50617,6.7888127 C 327.70022,6.7888127 331.18713,10.27573 331.18713,14.494157 C 331.18713,18.663817 327.70022,22.126349 323.50617,22.126349 C 319.26336,22.126349 315.80083,18.663816 315.80083,14.396621 C 315.80083,10.275729 319.33651,6.7888127 323.50617,6.7888127"
     id="text2406" />
</svg>
