<?xml version="1.0" encoding="UTF-8" standalone="no"?>
<!-- Created with Inkscape (http://www.inkscape.org/) -->
<svg
   xmlns:dc="http://purl.org/dc/elements/1.1/"
   xmlns:cc="http://creativecommons.org/ns#"
   xmlns:rdf="http://www.w3.org/1999/02/22-rdf-syntax-ns#"
   xmlns:svg="http://www.w3.org/2000/svg"
   xmlns="http://www.w3.org/2000/svg"
   xmlns:sodipodi="http://sodipodi.sourceforge.net/DTD/sodipodi-0.dtd"
   xmlns:inkscape="http://www.inkscape.org/namespaces/inkscape"
   width="708.66138"
   height="531.49603"
   id="svg3242"
   sodipodi:version="0.32"
   inkscape:version="0.46"
   version="1.0"
   sodipodi:docname="logo.svg"
   inkscape:output_extension="org.inkscape.output.svg.inkscape">
  <defs
     id="defs3244">
    <inkscape:perspective
       sodipodi:type="inkscape:persp3d"
       inkscape:vp_x="0 : 526.18109 : 1"
       inkscape:vp_y="0 : 1000 : 0"
       inkscape:vp_z="744.09448 : 526.18109 : 1"
       inkscape:persp3d-origin="372.04724 : 350.78739 : 1"
       id="perspective3250" />
    <inkscape:perspective
       id="perspective2399"
       inkscape:persp3d-origin="372.04724 : 350.78739 : 1"
       inkscape:vp_z="744.09448 : 526.18109 : 1"
       inkscape:vp_y="0 : 1000 : 0"
       inkscape:vp_x="0 : 526.18109 : 1"
       sodipodi:type="inkscape:persp3d" />
  </defs>
  <sodipodi:namedview
     id="base"
     pagecolor="#ffffff"
     bordercolor="#666666"
     borderopacity="1.0"
     inkscape:pageopacity="0.0"
     inkscape:pageshadow="2"
     inkscape:zoom="0.98994949"
     inkscape:cx="394.4732"
     inkscape:cy="308.82448"
     inkscape:document-units="px"
     inkscape:current-layer="layer1"
     showgrid="false"
     units="mm"
     inkscape:window-width="1278"
     inkscape:window-height="975"
     inkscape:window-x="0"
     inkscape:window-y="20" />
  <metadata
     id="metadata3247">
    <rdf:RDF>
      <cc:Work
         rdf:about="">
        <dc:format>image/svg+xml</dc:format>
        <dc:type
           rdf:resource="http://purl.org/dc/dcmitype/StillImage" />
      </cc:Work>
    </rdf:RDF>
  </metadata>
  <g
     inkscape:label="Capa 1"
     inkscape:groupmode="layer"
     id="layer1">
    <g
       transform="matrix(8.0345343,0,0,8.0345343,48.206487,-64.190362)"
       style="fill:#467cbc;fill-rule:nonzero;stroke:none;stroke-width:1;stroke-linecap:butt;stroke-linejoin:miter;stroke-dasharray:none;fill-opacity:1"
       id="g4"
       inkscape:export-xdpi="70"
       inkscape:export-ydpi="70">
      <path
         d="M 34.5909,35.5508 C 38.7022,33.8369 38.8662,27.2998 37.0401,23.8906 C 34.5909,19.3183 28.4073,20.0781 24.2325,21.2715 C 25.3897,17.9472 27.5127,13.4062 31.3467,12.75 C 35.1534,12.0986 38.8799,14.4619 42.1905,15.9931 C 45.1465,17.3623 50.3438,19.0801 52.4786,15.3457 C 53.127,13.7695 51.2012,12.4707 49.5127,11.3994 C 47.8282,10.3291 46.0342,9.30372 44.1612,8.60152 C 84.7119,0 85.8301,85.081 42.9004,72.9551 C 39.8008,72.081 36.8194,70.8213 33.9502,69.3672 C 37.959,69.7002 42.2774,69.2754 45.4854,66.6748 C 48.2325,64.4482 49.6827,59.8037 45.1563,58.7246 C 41.0879,57.7549 36.6573,60.2324 32.6446,60.5732 C 27.5918,61.0019 23.2832,61.1289 20.4102,57.1445 C 22.6338,56.8672 24.3555,56.2754 25.2286,55.6435 C 26.7403,54.5508 28.2051,53.0205 28.3379,51.0713 C 28.5948,47.3408 25.7286,43.8467 22.5186,42.2578 C 21.0342,41.5244 19.2578,41.2627 17.6543,41.7353 C 15.5889,42.3447 14.9932,44.1269 13.5469,45.4971 C 12.1309,46.8379 10.8086,47.8193 8.85747,48.209 C 6.58207,48.6113 4.38277,47.5185 2.62989,46.1601 C 1.67188,45.415 0.85645,44.5137 0,43.6572 C 3.65821,44.1797 8.53517,45.123 10.6787,41.0185 C 12.4024,37.7168 10.3565,33.9629 12.1787,30.6221 C 14.5196,26.334 20.459,29.6943 23.376,31.3789 C 26.7227,33.3125 30.0547,37.4394 34.5909,35.5508 z"
         id="path6"
         style="fill:#467cbc;fill-opacity:1" />
    </g>
    <g
       id="g3229"
       transform="matrix(4.1707307,0,0,4.1707307,-925.84013,-20.794684)">
      <path
         sodipodi:nodetypes="cczszzss"
         id="path2449"
         d="M 306.27762,81.263171 C 307.18364,76.53371 297.28145,77.941491 300.87124,83.286707 C 318.84074,105.94594 362.23184,92.149915 368.1993,88.505077 C 374.16676,84.86024 373.26483,71.961358 369.07743,72.227324 C 362.39896,72.651512 369.28841,80.563708 367.11023,81.36995 C 364.93205,82.176193 366.60874,81.981533 360.36562,81.984866 C 354.12251,81.9882 320.84014,82.094126 308.95067,83.585544 C 307.38628,83.781782 305.76865,83.920034 306.27762,81.263171 z"
         style="fill:#ffffff;fill-rule:evenodd;stroke:#ffffff;stroke-width:1px;stroke-linecap:butt;stroke-linejoin:miter;stroke-opacity:1" />
      <path
         sodipodi:nodetypes="ccccc"
         id="rect2452"
         d="M 325.18691,35.616493 C 338.03372,34.798544 349.96166,35.697224 360.74548,36.616535 C 355.10512,50.42638 347.65416,63.937503 346.35355,81.173932 C 338.65944,79.892023 331.15264,78.430194 321.09645,78.284923 C 313.73381,72.551985 323.36937,41.795329 325.18691,35.616493 z"
         style="fill:#ffffff;fill-opacity:1;stroke:#ffffff;stroke-width:0.63425773;stroke-linecap:round;stroke-linejoin:round;stroke-miterlimit:3.29999995;stroke-opacity:1" />
      <path
         sodipodi:nodetypes="cc"
         id="path3225"
         d="M 345.26178,34.302133 C 332.68637,57.279642 334.34276,68.958876 331.94733,84.52265"
         style="fill:none;fill-rule:evenodd;stroke:#ffffff;stroke-width:3.15336633;stroke-linecap:round;stroke-linejoin:miter;stroke-miterlimit:4;stroke-dasharray:none;stroke-opacity:1" />
    </g>
    <g
       id="g3234"
       transform="matrix(8.0345343,0,0,8.0345343,82.291167,-105.90313)"
       style="fill:#467cbc;fill-opacity:1">
      <g
         id="g8"
         style="fill:#467cbc;fill-opacity:1;fill-rule:nonzero;stroke:none;stroke-width:1;stroke-linecap:butt;stroke-linejoin:miter;stroke-dasharray:none"
         transform="matrix(0.5389413,0,0,0.5389413,43.543213,34.016692)">
        <path
           style="fill:#467cbc;fill-opacity:1"
           id="path10"
           d="M 2.9394,23.3554 C 5.25,20.0029 6.4716,16.0791 6.4716,12.0078 C 6.4716,8.0244 5.3017,4.1728 3.0878,0.8711 C 2.6269,0.1836 1.6953,0 1.0068,0.4599 C 0.3183,0.9218 0.1347,1.8545 0.5957,2.542 C 2.4775,5.3476 3.4716,8.6211 3.4716,12.0078 C 3.4716,15.4677 2.4336,18.8027 0.4697,21.6523 C 0,22.3349 0.1709,23.2685 0.8535,23.7392 C 1.5351,24.2089 2.4697,24.0371 2.9394,23.3554 z" />
      </g>
      <g
         id="g12"
         style="fill:#467cbc;fill-opacity:1;fill-rule:nonzero;stroke:none;stroke-width:1;stroke-linecap:butt;stroke-linejoin:miter;stroke-dasharray:none"
         transform="matrix(0.5389413,0,0,0.5389413,46.664222,31.910402)">
        <path
           style="fill:#467cbc;fill-opacity:1"
           id="path14"
           d="M 2.9394,31.248 C 6.0586,26.7236 7.707,21.4218 7.707,15.916 C 7.707,10.5322 6.1269,5.3291 3.1386,0.8711 C 2.6767,0.1836 1.7451,0 1.0566,0.4609 C 0.3681,0.9218 0.1845,1.8545 0.6465,2.542 C 3.3027,6.5048 4.707,11.1289 4.707,15.916 C 4.707,20.8115 3.2422,25.5244 0.4707,29.5449 C 0,30.2275 0.1718,31.1611 0.8545,31.6318 C 1.5351,32.1015 2.4697,31.9296 2.9394,31.248 z" />
      </g>
      <g
         id="g16"
         style="fill:#467cbc;fill-opacity:1;fill-rule:nonzero;stroke:none;stroke-width:1;stroke-linecap:butt;stroke-linejoin:miter;stroke-dasharray:none"
         transform="matrix(0.5389413,0,0,0.5389413,49.641549,29.899881)">
        <path
           style="fill:#467cbc;fill-opacity:1"
           id="path18"
           d="M 0.6953,2.543 C 4.0928,7.6103 5.8887,13.5244 5.8887,19.6465 C 5.8887,25.9053 4.0146,31.9326 0.4707,37.0762 C 0,37.7588 0.1719,38.6924 0.8545,39.1631 C 1.5361,39.6328 2.4707,39.4609 2.9394,38.7793 C 6.832,33.1318 8.8887,26.5166 8.8887,19.6465 C 8.8887,12.9267 6.918,6.4346 3.1865,0.8721 C 2.7256,0.1836 1.793,0 1.1055,0.4609 C 0.418,0.9228 0.2344,1.8545 0.6953,2.543 z" />
      </g>
    </g>
  </g>
</svg>
