<?xml version="1.0" encoding="UTF-8" standalone="no"?>
<!-- Created with Inkscape (http://www.inkscape.org/) -->

<svg
   xmlns:dc="http://purl.org/dc/elements/1.1/"
   xmlns:cc="http://creativecommons.org/ns#"
   xmlns:rdf="http://www.w3.org/1999/02/22-rdf-syntax-ns#"
   xmlns:svg="http://www.w3.org/2000/svg"
   xmlns="http://www.w3.org/2000/svg"
   xmlns:sodipodi="http://sodipodi.sourceforge.net/DTD/sodipodi-0.dtd"
   xmlns:inkscape="http://www.inkscape.org/namespaces/inkscape"
   width="210mm"
   height="297mm"
   id="svg2"
   version="1.1"
   inkscape:version="0.48.2 r9819"
   sodipodi:docname="logo.svg">
  <defs
     id="defs4" />
  <sodipodi:namedview
     id="base"
     pagecolor="#ffffff"
     bordercolor="#666666"
     borderopacity="1.0"
     inkscape:pageopacity="0.0"
     inkscape:pageshadow="2"
     inkscape:zoom="1.635886"
     inkscape:cx="193.78955"
     inkscape:cy="87.99966"
     inkscape:document-units="px"
     inkscape:current-layer="layer1"
     showgrid="false"
     inkscape:window-width="1280"
     inkscape:window-height="774"
     inkscape:window-x="0"
     inkscape:window-y="0"
     inkscape:window-maximized="1"
     showguides="true"
     inkscape:guide-bbox="true" />
  <metadata
     id="metadata7">
    <rdf:RDF>
      <cc:Work
         rdf:about="">
        <dc:format>image/svg+xml</dc:format>
        <dc:type
           rdf:resource="http://purl.org/dc/dcmitype/StillImage" />
        <dc:title />
      </cc:Work>
    </rdf:RDF>
  </metadata>
  <g
     inkscape:label="Capa 1"
     inkscape:groupmode="layer"
     id="layer1">
    <path
       style="fill:#000000"
       d=""
       id="path3015"
       inkscape:connector-curvature="0" />
    <g
       transform="translate(530.67767,52.056554)"
       id="g3850">
      <g
         id="g3004">
        <g
           transform="matrix(0.64,0,0,0.64,-78.185814,354.30368)"
           style="fill:#5c3566"
           id="g3830">
          <rect
             y="929.42688"
             x="-217.18282"
             height="22"
             width="87.5"
             id="rect3822"
             style="fill:#5c3566;fill-opacity:1;fill-rule:nonzero;stroke:none" />
          <rect
             transform="matrix(0.70710678,0.70710678,-0.70710678,0.70710678,0,0)"
             style="fill:#5c3566;fill-opacity:1;fill-rule:nonzero;stroke:none"
             id="rect3824"
             width="87.5"
             height="22"
             x="498.59671"
             y="776.61774" />
          <rect
             transform="matrix(0,1,-1,0,0,0)"
             style="fill:#5c3566;fill-opacity:1;fill-rule:nonzero;stroke:none"
             id="rect3826"
             width="87.5"
             height="22"
             x="896.67688"
             y="162.43282" />
          <rect
             y="-553.34668"
             x="743.86774"
             height="22"
             width="87.5"
             id="rect3828"
             style="fill:#5c3566;fill-opacity:1;fill-rule:nonzero;stroke:none"
             transform="matrix(-0.70710678,0.70710678,-0.70710678,-0.70710678,0,0)" />
        </g>
        <rect
           style="fill:#4e9a06;fill-opacity:1;fill-rule:nonzero;stroke:none"
           id="rect3848"
           width="36"
           height="36"
           x="-189.18282"
           y="920.17688" />
        <rect
           y="956.17688"
           x="-217.18282"
           height="28"
           width="28"
           id="rect3042"
           style="fill:#4e9a06;fill-opacity:1;fill-rule:nonzero;stroke:none" />
      </g>
    </g>
    <g
       transform="matrix(0.64,0,0,0.64,138.997,397.81708)"
       id="g3844">
      <path
         inkscape:connector-curvature="0"
         style="fill:#2e3436;fill-opacity:1;fill-rule:nonzero;stroke:none"
         d="m 43.75,952.375 0,12.5 11,0 0,17.1875 12.15625,-12.15625 15.5625,15.5625 -12.15625,12.15625 17.1875,0 0,11 12.5,0 0,-56.25 -56.25,0 z"
         id="rect3838"
         transform="translate(-217.18281,-68.185297)" />
      <path
         inkscape:connector-curvature="0"
         style="fill:#2e3436;fill-opacity:1;fill-rule:nonzero;stroke:none"
         d="m 32.75,964.875 0,17.1875 -12.15625,-12.15625 -15.5625,15.5625 12.15625,12.15625 -17.1875,0 0,22 17.1875,0 -12.15625,12.1562 15.5625,15.5313 12.15625,-12.1563 0,17.2188 22,0 0,-17.2188 12.15625,12.1563 15.5625,-15.5313 -12.15625,-12.1562 17.1875,0 0,-11 -43.75,0 0,-43.75 -11,0 z"
         transform="translate(-217.18281,-68.185297)"
         id="rect3814" />
    </g>
    <text
       sodipodi:linespacing="75%"
       id="text3859"
       y="999.69812"
       x="70.449242"
       style="font-size:55.99998093px;font-style:normal;font-variant:normal;font-weight:normal;font-stretch:normal;text-align:start;line-height:75%;letter-spacing:-2.49999928px;word-spacing:0px;writing-mode:lr-tb;text-anchor:start;fill:#2e3436;fill-opacity:1;stroke:none;font-family:Umpush;-inkscape-font-specification:Umpush"
       xml:space="preserve"><tspan
         y="999.69812"
         x="70.449242"
         id="tspan3861"
         sodipodi:role="line">escuelab</tspan><tspan
         y="1041.6981"
         x="70.449242"
         sodipodi:role="line"
         id="tspan3876">puno</tspan></text>
    <path
       style="fill:#000000"
       d=""
       id="path3030"
       inkscape:connector-curvature="0" />
    <path
       style="fill:#000000"
       d=""
       id="path3028"
       inkscape:connector-curvature="0" />
  </g>
</svg>
