<?xml version="1.0" encoding="UTF-8" standalone="no"?>
<!-- Created with Inkscape (http://www.inkscape.org/) -->

<svg
   xmlns:dc="http://purl.org/dc/elements/1.1/"
   xmlns:cc="http://creativecommons.org/ns#"
   xmlns:rdf="http://www.w3.org/1999/02/22-rdf-syntax-ns#"
   xmlns:svg="http://www.w3.org/2000/svg"
   xmlns="http://www.w3.org/2000/svg"
   xmlns:sodipodi="http://sodipodi.sourceforge.net/DTD/sodipodi-0.dtd"
   xmlns:inkscape="http://www.inkscape.org/namespaces/inkscape"
   width="569.17529"
   height="192"
   id="svg3016"
   version="1.1"
   inkscape:version="0.48.2 r9819"
   sodipodi:docname="Nuevo documento 2">
  <defs
     id="defs3018" />
  <sodipodi:namedview
     id="base"
     pagecolor="#ffffff"
     bordercolor="#666666"
     borderopacity="1.0"
     inkscape:pageopacity="0.0"
     inkscape:pageshadow="2"
     inkscape:zoom="0.98994949"
     inkscape:cx="355.79909"
     inkscape:cy="152.44375"
     inkscape:document-units="px"
     inkscape:current-layer="layer1"
     showgrid="false"
     fit-margin-top="0"
     fit-margin-left="0"
     fit-margin-right="0"
     fit-margin-bottom="0"
     inkscape:window-width="1280"
     inkscape:window-height="774"
     inkscape:window-x="0"
     inkscape:window-y="0"
     inkscape:window-maximized="1" />
  <metadata
     id="metadata3021">
    <rdf:RDF>
      <cc:Work
         rdf:about="">
        <dc:format>image/svg+xml</dc:format>
        <dc:type
           rdf:resource="http://purl.org/dc/dcmitype/StillImage" />
        <dc:title></dc:title>
      </cc:Work>
    </rdf:RDF>
  </metadata>
  <g
     inkscape:label="Capa 1"
     inkscape:groupmode="layer"
     id="layer1"
     transform="translate(-176.80918,-215.3086)">
    <path
       style="fill:#2e3436;fill-opacity:1;fill-rule:nonzero;stroke:none"
       d="M 57.96875 8.46875 L 57.96875 25.03125 L 72.53125 25.03125 L 72.53125 47.78125 L 88.65625 31.6875 L 109.25 52.3125 L 93.15625 68.40625 L 115.9375 68.40625 L 115.9375 82.96875 L 132.5 82.96875 L 132.5 8.46875 L 57.96875 8.46875 z M 115.9375 82.96875 L 57.96875 82.96875 L 57.96875 25.03125 L 43.375 25.03125 L 43.375 47.78125 L 27.28125 31.6875 L 6.65625 52.3125 L 22.78125 68.40625 L 0 68.40625 L 0 97.5625 L 22.78125 97.5625 L 6.65625 113.65625 L 27.28125 134.25 L 43.375 118.125 L 43.375 140.9375 L 72.53125 140.9375 L 72.53125 118.125 L 88.65625 134.25 L 109.25 113.65625 L 93.15625 97.5625 L 115.9375 97.5625 L 115.9375 82.96875 z "
       transform="translate(176.80918,215.3086)"
       id="rect3838" />
    <path
       inkscape:connector-curvature="0"
       id="path3045"
       style="font-size:115.92453003px;font-style:normal;font-variant:normal;font-weight:normal;font-stretch:normal;text-align:start;line-height:75%;letter-spacing:-5.17520237px;word-spacing:0px;writing-mode:lr-tb;text-anchor:start;fill:#2e3436;fill-opacity:1;stroke:none;font-family:Umpush;-inkscape-font-specification:Umpush"
       d="m 337.75807,270.8369 c 0.0755,2.98116 0.47169,5.6038 1.18868,7.86793 0.7547,2.26417 1.6981,4.07549 2.83019,5.43396 1.13206,1.3585 2.49055,2.47171 4.07547,3.33962 1.58489,0.86794 3.15092,1.45284 4.69812,1.75472 1.54714,0.3019 3.22638,0.45284 5.03773,0.45283 8.45279,0.0377 13.73581,-3.37735 15.84906,-10.24528 l 10.5283,0 c -1.16987,6.00001 -4.09439,10.73585 -8.77358,14.20754 -4.64156,3.4717 -10.52834,5.20755 -17.66038,5.20755 -9.1321,0 -16.1887,-2.62264 -21.16981,-7.86792 -4.98114,-5.24527 -7.4717,-12.66036 -7.4717,-22.24529 0,-9.69807 2.45282,-17.43391 7.35849,-23.20754 4.94338,-5.81127 11.84903,-8.71692 20.71698,-8.71699 8.75468,7e-5 15.47165,2.86799 20.15095,8.60378 4.71692,5.69816 7.11314,13.50947 7.18868,23.43396 -6e-5,0.90569 -0.0189,1.56607 -0.0566,1.98113 l -44.49057,0 m 33.67925,-9.28302 c -0.11326,-1.39618 -0.3208,-2.69807 -0.62264,-3.90566 -0.30194,-1.24524 -0.8491,-2.56599 -1.64151,-3.96226 -0.75476,-1.43392 -1.69816,-2.64146 -2.83019,-3.62264 -1.13212,-1.01882 -2.67929,-1.84901 -4.64151,-2.49057 -1.92456,-0.67919 -4.13211,-1.01881 -6.62264,-1.01887 -4.79248,6e-5 -8.77361,1.41515 -11.9434,4.24529 -3.16983,2.79249 -4.8868,6.3774 -5.15094,10.75471 l 33.45283,0" />
    <path
       inkscape:connector-curvature="0"
       id="path3047"
       style="font-size:115.92453003px;font-style:normal;font-variant:normal;font-weight:normal;font-stretch:normal;text-align:start;line-height:75%;letter-spacing:-5.17520237px;word-spacing:0px;writing-mode:lr-tb;text-anchor:start;fill:#2e3436;fill-opacity:1;stroke:none;font-family:Umpush;-inkscape-font-specification:Umpush"
       d="m 435.48854,279.89351 c -6e-5,5.66039 -2.28307,10.24529 -6.84906,13.75471 -4.52834,3.50944 -10.32079,5.26415 -17.37736,5.26416 -7.69813,-10e-6 -13.79247,-1.79246 -18.28302,-5.37736 -4.49057,-3.62264 -6.96227,-8.79244 -7.41509,-15.50944 l 10.07547,0 c 1.09433,7.81134 6.283,11.71699 15.56604,11.71698 3.92449,10e-6 7.20751,-0.81131 9.84905,-2.43396 2.64147,-1.62263 3.96223,-3.73583 3.96227,-6.33962 -4e-5,-1.84904 -0.56608,-3.35847 -1.69811,-4.5283 -1.13212,-1.20753 -2.71702,-2.11319 -4.75472,-2.71698 -2.03777,-0.64149 -4.13211,-1.15092 -6.28302,-1.52831 -2.15097,-0.41506 -4.64154,-0.88676 -7.4717,-1.41509 -2.79247,-0.56601 -5.13209,-1.20752 -7.01887,-1.92453 -2.00001,-0.75469 -3.73586,-1.73582 -5.20754,-2.9434 -1.43398,-1.20751 -2.52831,-2.50939 -3.28302,-3.90566 -0.71699,-1.39618 -1.24529,-2.73581 -1.58491,-4.01886 -0.30189,-1.28298 -0.45283,-2.566 -0.45283,-3.84906 0,-5.58486 2.09433,-9.86787 6.28302,-12.84906 4.18866,-2.98107 9.47168,-4.47163 15.84906,-4.4717 3.77355,7e-5 7.13204,0.4529 10.07547,1.3585 2.94336,0.90572 5.24524,2.03779 6.90566,3.39622 1.69807,1.32081 3.07542,2.84911 4.13208,4.58491 1.09429,1.69816 1.81127,3.28307 2.15094,4.75471 0.37731,1.43401 0.56599,2.81137 0.56604,4.13208 l -9.96227,0 c -0.45287,-3.13203 -1.71702,-5.43391 -3.79245,-6.90566 -2.07551,-1.47165 -5.15098,-2.2075 -9.22642,-2.20755 -3.73587,5e-5 -6.75473,0.69817 -9.0566,2.09434 -2.26417,1.35854 -3.39624,3.43401 -3.39623,6.22642 -10e-6,1.62268 0.60376,2.92457 1.81132,3.90566 1.20753,0.98117 2.47168,1.66041 3.79246,2.03773 1.35847,0.33966 3.81129,0.8491 7.35849,1.52831 0.22638,0.0378 0.3962,0.0755 0.50943,0.1132 6.60374,1.24532 11.18864,2.3774 13.75472,3.39623 5.54712,2.18871 8.88674,5.64154 10.01887,10.35849 0.30183,1.32078 0.45277,2.75474 0.45283,4.30189" />
    <path
       inkscape:connector-curvature="0"
       id="path3049"
       style="font-size:115.92453003px;font-style:normal;font-variant:normal;font-weight:normal;font-stretch:normal;text-align:start;line-height:75%;letter-spacing:-5.17520237px;word-spacing:0px;writing-mode:lr-tb;text-anchor:start;fill:#2e3436;fill-opacity:1;stroke:none;font-family:Umpush;-inkscape-font-specification:Umpush"
       d="m 466.53975,289.23313 c 9.84902,-0.0755 14.88675,-4.66036 15.11321,-13.75472 l 10.01887,0 c -0.22647,7.47172 -2.56609,13.2453 -7.01887,17.32076 -4.41514,4.03774 -10.41513,6.0566 -18,6.0566 -3.62267,0 -7.0755,-0.66038 -10.35849,-1.98113 -3.2453,-1.32075 -6.15096,-3.20754 -8.71698,-5.66038 -2.52831,-2.49055 -4.54718,-5.6981 -6.05661,-9.62264 -1.4717,-3.92451 -2.20755,-8.30186 -2.20754,-13.13208 -10e-6,-9.77354 2.37735,-17.49051 7.13207,-23.15094 4.79244,-5.66032 11.54715,-8.4905 20.26415,-8.49057 2.9811,7e-5 5.71695,0.30195 8.20755,0.90567 2.49052,0.60383 4.56599,1.39628 6.22642,2.37735 1.66032,0.94346 3.13202,2.0944 4.41509,3.45283 1.3207,1.32081 2.33957,2.66043 3.0566,4.01887 0.75467,1.32081 1.35844,2.7359 1.81132,4.24529 0.45278,1.47174 0.75467,2.77362 0.90566,3.90566 0.15089,1.09438 0.22636,2.15098 0.22642,3.16981 l -9.90566,0 c -0.33967,-3.50939 -1.86797,-6.45279 -4.58491,-8.83019 -2.67928,-2.41505 -6.00003,-3.62259 -9.96226,-3.62264 -5.77361,-0.11316 -10.11323,1.67929 -13.01887,5.37736 -2.86794,3.66042 -4.3019,9.11324 -4.30189,16.35849 -1e-5,3.32078 0.35848,6.26417 1.07548,8.83018 0.7547,2.56606 1.69809,4.6038 2.83018,6.11321 1.1698,1.50945 2.52829,2.73586 4.07548,3.67925 1.54714,0.9434 3.01884,1.58491 4.41509,1.92453 1.3962,0.33963 2.84903,0.50944 4.35849,0.50943" />
    <path
       inkscape:connector-curvature="0"
       id="path3051"
       style="font-size:115.92453003px;font-style:normal;font-variant:normal;font-weight:normal;font-stretch:normal;text-align:start;line-height:75%;letter-spacing:-5.17520237px;word-spacing:0px;writing-mode:lr-tb;text-anchor:start;fill:#2e3436;fill-opacity:1;stroke:none;font-family:Umpush;-inkscape-font-specification:Umpush"
       d="m 503.64757,272.19539 c -2e-5,2.79248 0.41508,5.20757 1.24528,7.24529 0.86791,2.00001 2.01885,3.52831 3.45283,4.5849 1.47168,1.01888 2.98111,1.75473 4.5283,2.20755 1.54715,0.45284 3.18866,0.67926 4.92453,0.67925 9.62261,1e-5 14.43392,-4.81131 14.43397,-14.43397 l 0,-35.60377 10.18868,0 0,61.41509 -10.18868,0 0,-3.62264 c -2.49061,2.79246 -7.16985,4.18868 -14.03774,4.18868 -7.88682,0 -14.00002,-2.16981 -18.33962,-6.50943 -4.3019,-4.37735 -6.43397,-10.1698 -6.39623,-17.37736 l 0,-38.09434 10.18868,0 0,35.32075" />
    <path
       inkscape:connector-curvature="0"
       id="path3053"
       style="font-size:115.92453003px;font-style:normal;font-variant:normal;font-weight:normal;font-stretch:normal;text-align:start;line-height:75%;letter-spacing:-5.17520237px;word-spacing:0px;writing-mode:lr-tb;text-anchor:start;fill:#2e3436;fill-opacity:1;stroke:none;font-family:Umpush;-inkscape-font-specification:Umpush"
       d="m 562.03841,270.8369 c 0.0755,2.98116 0.47168,5.6038 1.18868,7.86793 0.7547,2.26417 1.69809,4.07549 2.83019,5.43396 1.13205,1.3585 2.49054,2.47171 4.07547,3.33962 1.58488,0.86794 3.15092,1.45284 4.69811,1.75472 1.54714,0.3019 3.22639,0.45284 5.03774,0.45283 8.45279,0.0377 13.7358,-3.37735 15.84905,-10.24528 l 10.52831,0 c -1.16987,6.00001 -4.0944,10.73585 -8.77359,14.20754 -4.64155,3.4717 -10.52834,5.20755 -17.66038,5.20755 -9.1321,0 -16.18869,-2.62264 -21.16981,-7.86792 -4.98114,-5.24527 -7.4717,-12.66036 -7.4717,-22.24529 0,-9.69807 2.45283,-17.43391 7.3585,-23.20754 4.94337,-5.81127 11.84903,-8.71692 20.71698,-8.71699 8.75467,7e-5 15.47165,2.86799 20.15094,8.60378 4.71692,5.69816 7.11315,13.50947 7.18868,23.43396 -6e-5,0.90569 -0.0189,1.56607 -0.0566,1.98113 l -44.49057,0 m 33.67924,-9.28302 c -0.11325,-1.39618 -0.3208,-2.69807 -0.62264,-3.90566 -0.30193,-1.24524 -0.8491,-2.56599 -1.64151,-3.96226 -0.75476,-1.43392 -1.69815,-2.64146 -2.83018,-3.62264 -1.13212,-1.01882 -2.67929,-1.84901 -4.64151,-2.49057 -1.92457,-0.67919 -4.13211,-1.01881 -6.62265,-1.01887 -4.79248,6e-5 -8.7736,1.41515 -11.94339,4.24529 -3.16983,2.79249 -4.88681,6.3774 -5.15095,10.75471 l 33.45283,0" />
    <path
       inkscape:connector-curvature="0"
       id="path3055"
       style="font-size:115.92453003px;font-style:normal;font-variant:normal;font-weight:normal;font-stretch:normal;text-align:start;line-height:75%;letter-spacing:-5.17520237px;word-spacing:0px;writing-mode:lr-tb;text-anchor:start;fill:#2e3436;fill-opacity:1;stroke:none;font-family:Umpush;-inkscape-font-specification:Umpush"
       d="m 613.69338,298.28973 0,-82.98113 10.18868,0 0,82.98113 -10.18868,0" />
    <path
       inkscape:connector-curvature="0"
       id="path3057"
       style="font-size:115.92453003px;font-style:normal;font-variant:normal;font-weight:normal;font-stretch:normal;text-align:start;line-height:75%;letter-spacing:-5.17520237px;word-spacing:0px;writing-mode:lr-tb;text-anchor:start;fill:#2e3436;fill-opacity:1;stroke:none;font-family:Umpush;-inkscape-font-specification:Umpush"
       d="m 683.23518,273.10105 c -5e-5,8.45285 0.16976,14.13209 0.50944,17.03774 0.3773,2.86793 1.28296,5.58491 2.71698,8.15094 l -10.64151,0 c -1.05665,-2.07547 -1.7359,-4.54716 -2.03774,-7.41509 -3.24532,2.75472 -6.58494,4.90566 -10.01886,6.45283 -3.434,1.54717 -7.47173,2.32075 -12.11321,2.32075 -3.1321,0 -5.92455,-0.37736 -8.37736,-1.13207 -2.45284,-0.75472 -4.43397,-1.71698 -5.9434,-2.88679 -1.4717,-1.16981 -2.69812,-2.5283 -3.67924,-4.07548 -0.98114,-1.58489 -1.66038,-3.11319 -2.03774,-4.5849 -0.33963,-1.50942 -0.50944,-3.01885 -0.50943,-4.5283 -10e-6,-2.41508 0.45282,-4.71696 1.35849,-6.90566 0.94339,-2.18866 2.54716,-4.22639 4.81132,-6.11321 2.26414,-1.9245 5.07546,-3.33959 8.43396,-4.24528 1.54715,-0.37733 5.64149,-1.01884 12.28302,-1.92453 6.64147,-0.94336 11.6226,-1.9811 14.9434,-3.11321 -5e-5,-0.33958 0.0188,-0.75468 0.0566,-1.24528 0.0754,-0.52827 0.11316,-0.83015 0.11321,-0.90566 -5e-5,-0.11317 -0.0378,-0.28298 -0.11321,-0.50944 -4e-5,-3.92448 -1.07552,-6.94335 -3.22641,-9.0566 -2.15099,-2.11316 -5.9057,-3.16976 -11.26416,-3.16981 -4.75474,5e-5 -8.30191,0.84911 -10.6415,2.54717 -2.30191,1.69816 -3.98115,4.66042 -5.03774,8.88679 l -9.96226,-1.35849 c 2.18867,-12.33957 11.22639,-18.50937 27.1132,-18.50944 3.20751,7e-5 6.07544,0.26422 8.60378,0.79246 2.52825,0.49062 4.58486,1.0944 6.16981,1.81132 1.62259,0.71704 2.99995,1.75477 4.13207,3.11321 1.13203,1.35854 1.98108,2.56609 2.54717,3.62264 0.56599,1.01892 0.98108,2.45288 1.24529,4.30188 0.30183,1.84911 0.47164,3.30194 0.50943,4.3585 0.0377,1.01891 0.0566,2.4906 0.0566,4.41509 -5e-5,0.15098 -5e-5,0.24532 0,0.28302 l 0,13.5849 m -41.26415,9.05661 c -1e-5,1.05662 0.1698,2.09435 0.50944,3.11321 0.37734,1.01888 0.98111,2.03774 1.81132,3.0566 0.8679,0.98114 2.13205,1.79246 3.79245,2.43396 1.69809,0.60378 3.69809,0.90567 6,0.90566 4.07544,1e-5 7.62261,-0.86791 10.64151,-2.60377 3.01883,-1.77358 5.2075,-4.1132 6.56604,-7.01887 1.09429,-2.37734 1.64146,-5.77356 1.64151,-10.18868 l 0,-3.73585 c -2.2642,0.94343 -5.00004,1.73588 -8.20755,2.37736 -3.16985,0.6038 -5.98116,1.09437 -8.43396,1.4717 -2.45286,0.33965 -4.83022,0.84908 -7.13208,1.5283 -2.26417,0.64153 -4.03775,1.67927 -5.32075,3.11321 -1.2453,1.39624 -1.86794,3.2453 -1.86793,5.54717" />
    <path
       inkscape:connector-curvature="0"
       id="path3059"
       style="font-size:115.92453003px;font-style:normal;font-variant:normal;font-weight:normal;font-stretch:normal;text-align:start;line-height:75%;letter-spacing:-5.17520237px;word-spacing:0px;writing-mode:lr-tb;text-anchor:start;fill:#2e3436;fill-opacity:1;stroke:none;font-family:Umpush;-inkscape-font-specification:Umpush"
       d="m 720.00337,298.85577 c -2.33966,0 -4.52833,-0.26415 -6.56604,-0.79245 -2.00003,-0.5283 -3.67927,-1.22641 -5.03774,-2.09434 -1.32077,-0.86792 -2.37738,-1.64151 -3.16981,-2.32076 -0.75473,-0.71697 -1.39624,-1.41508 -1.92453,-2.09434 l 0,6.73585 -9.45283,0 0,-82.98113 10.18868,0 0,29.60377 c 4.30187,-5.39616 9.79243,-8.09427 16.4717,-8.09434 7.81128,7e-5 13.99995,2.84912 18.56604,8.54717 4.60371,5.66043 6.9056,12.98118 6.90566,21.96227 -6e-5,6.0755 -0.98119,11.47172 -2.9434,16.18868 -1.96232,4.71699 -4.92458,8.45284 -8.88679,11.20755 -3.96231,2.75471 -8.67928,4.13207 -14.15094,4.13207 m -0.39623,-52.69811 c -4.56607,5e-5 -8.32078,2.09439 -11.26415,6.28302 -2.94342,4.18872 -4.41511,9.30192 -4.4151,15.33962 -1e-5,3.39625 0.33961,6.43399 1.01887,9.11321 0.67923,2.67926 1.52828,4.81133 2.54717,6.39622 1.05658,1.58492 2.283,2.88681 3.67925,3.90566 1.3962,1.01888 2.73582,1.71699 4.01887,2.09434 1.32072,0.37737 2.64147,0.56605 3.96226,0.56604 5.43392,-0.0377 9.64147,-2.01886 12.62264,-5.94339 2.98109,-3.96225 4.47165,-9.20753 4.4717,-15.73585 -5e-5,-3.47167 -0.37741,-6.54714 -1.13208,-9.22642 -0.71702,-2.6792 -1.64155,-4.79241 -2.77358,-6.33962 -1.13212,-1.58486 -2.47174,-2.86788 -4.01887,-3.84906 -1.54721,-1.01882 -3.01891,-1.69806 -4.41509,-2.03773 -1.39627,-0.37731 -2.83023,-0.56599 -4.30189,-0.56604" />
    <path
       inkscape:connector-curvature="0"
       id="path3061"
       style="font-size:115.92453003px;font-style:normal;font-variant:normal;font-weight:normal;font-stretch:normal;text-align:start;line-height:75%;letter-spacing:-5.17520237px;word-spacing:0px;writing-mode:lr-tb;text-anchor:start;fill:#2e3436;fill-opacity:1;stroke:none;font-family:Umpush;-inkscape-font-specification:Umpush"
       d="m 381.6826,355.28973 c -6e-5,5.88682 -1.00005,11.1321 -3,15.73585 -2.00005,4.56605 -4.94344,8.16982 -8.83019,10.81132 -3.88683,2.64152 -8.434,3.96227 -13.6415,3.96227 -6.67928,0 -12.16984,-2.69811 -16.4717,-8.09434 l 0,29.60377 -10.18868,0 0,-82.98113 9.45283,0 0,6.73585 c 0.52828,-0.67919 1.16979,-1.35844 1.92453,-2.03774 0.79243,-0.71692 1.84903,-1.50937 3.16981,-2.37736 1.35847,-0.86786 3.03771,-1.56597 5.03773,-2.09433 2.03771,-0.52825 4.22639,-0.7924 6.56604,-0.79246 8.18864,6e-5 14.56599,2.90572 19.13208,8.71698 4.56598,5.81137 6.84899,13.41514 6.84905,22.81132 m -26.83019,-22.5283 c -1.32078,5e-5 -2.64153,0.18873 -3.96226,0.56604 -1.28305,0.37741 -2.62267,1.07552 -4.01887,2.09434 -1.39625,1.01892 -2.62266,2.3208 -3.67924,3.90566 -1.01889,1.58495 -1.86795,3.71702 -2.54717,6.39623 -0.67927,2.67928 -1.01889,5.71701 -1.01887,9.1132 -2e-5,6.00003 1.45281,11.11323 4.35849,15.33963 2.94337,4.18869 6.71695,6.28303 11.32075,6.28302 1.47167,1e-5 2.90563,-0.16981 4.30189,-0.50944 1.39619,-0.37735 2.86789,-1.05659 4.4151,-2.03773 1.54712,-1.01886 2.88674,-2.30188 4.01886,-3.84906 1.13203,-1.58489 2.05656,-3.71696 2.77359,-6.39623 0.75467,-2.67922 1.13203,-5.75469 1.13207,-9.22641 -4e-5,-2.86789 -0.33967,-5.566 -1.01886,-8.09434 -0.64156,-2.52826 -1.62269,-4.81128 -2.9434,-6.84906 -1.3208,-2.07542 -3.11325,-3.71693 -5.37736,-4.92453 -2.22645,-1.20749 -4.81135,-1.81127 -7.75472,-1.81132" />
    <path
       inkscape:connector-curvature="0"
       id="path3063"
       style="font-size:115.92453003px;font-style:normal;font-variant:normal;font-weight:normal;font-stretch:normal;text-align:start;line-height:75%;letter-spacing:-5.17520237px;word-spacing:0px;writing-mode:lr-tb;text-anchor:start;fill:#2e3436;fill-opacity:1;stroke:none;font-family:Umpush;-inkscape-font-specification:Umpush"
       d="m 398.07344,359.13879 c -1e-5,2.79248 0.41508,5.20757 1.24529,7.24528 0.8679,2.00002 2.01884,3.52832 3.45283,4.58491 1.47167,1.01888 2.9811,1.75473 4.5283,2.20755 1.54714,0.45284 3.18865,0.67925 4.92453,0.67924 9.6226,10e-6 14.43391,-4.8113 14.43396,-14.43396 l 0,-35.60377 10.18868,0 0,61.41509 -10.18868,0 0,-3.62264 c -2.49061,2.79245 -7.16985,4.18868 -14.03774,4.18868 -7.88681,0 -14.00001,-2.16981 -18.33962,-6.50943 -4.3019,-4.37735 -6.43397,-10.1698 -6.39623,-17.37736 l 0,-38.09434 10.18868,0 0,35.32075" />
    <path
       inkscape:connector-curvature="0"
       id="path3065"
       style="font-size:115.92453003px;font-style:normal;font-variant:normal;font-weight:normal;font-stretch:normal;text-align:start;line-height:75%;letter-spacing:-5.17520237px;word-spacing:0px;writing-mode:lr-tb;text-anchor:start;fill:#2e3436;fill-opacity:1;stroke:none;font-family:Umpush;-inkscape-font-specification:Umpush"
       d="m 475.08692,335.3086 c -5.32078,5e-5 -9.30191,1.69816 -11.94339,5.09434 -2.64153,3.39627 -3.96228,8.30193 -3.96227,14.71698 l 0,30.11321 -10.18868,0 0,-60.22641 10.18868,0 0,5.83018 c 1.77357,-2.33956 4.11319,-4.09428 7.01887,-5.26415 2.90563,-1.20748 5.94337,-1.81126 9.11321,-1.81132 3.47166,6e-5 6.566,0.5095 9.28302,1.5283 2.71693,1.01893 4.88674,2.32082 6.50943,3.90566 1.66033,1.58496 3.01882,3.47176 4.07547,5.66038 1.05655,2.15099 1.77353,4.2642 2.15095,6.33962 0.41504,2.07552 0.62258,4.22646 0.62264,6.45284 l 0,37.5849 -10.18868,0 0,-35.32075 c -5e-5,-9.73581 -4.22646,-14.60373 -12.67925,-14.60378" />
    <path
       inkscape:connector-curvature="0"
       id="path3067"
       style="font-size:115.92453003px;font-style:normal;font-variant:normal;font-weight:normal;font-stretch:normal;text-align:start;line-height:75%;letter-spacing:-5.17520237px;word-spacing:0px;writing-mode:lr-tb;text-anchor:start;fill:#2e3436;fill-opacity:1;stroke:none;font-family:Umpush;-inkscape-font-specification:Umpush"
       d="m 532.74191,385.85577 c -9.01889,0 -15.98114,-2.67924 -20.88679,-8.03773 -4.86793,-5.39622 -7.30189,-12.94338 -7.30189,-22.64151 0,-9.66034 2.45283,-17.30184 7.3585,-22.92453 4.94338,-5.66032 11.88676,-8.49051 20.83018,-8.49057 8.67921,6e-5 15.52826,2.77365 20.54717,8.32076 5.05655,5.50948 7.58485,12.92457 7.58491,22.24528 -6e-5,4.71701 -0.52836,8.92455 -1.58491,12.62264 -1.01892,3.66039 -2.39628,6.66039 -4.13207,9 -1.7359,2.33963 -3.84911,4.28303 -6.33962,5.83019 -2.45288,1.50944 -5.00005,2.56604 -7.64151,3.16981 -2.60381,0.60378 -5.41513,0.90566 -8.43397,0.90566 m 0,-53.15094 c -5.77361,5e-5 -10.16983,2.00005 -13.18868,6 -3.01888,4.00004 -4.52831,9.4906 -4.5283,16.4717 -1e-5,3.58493 0.39621,6.73587 1.18868,9.45283 0.79244,2.67926 1.77357,4.7736 2.9434,6.28302 1.20753,1.50944 2.64149,2.73586 4.30189,3.67924 1.66035,0.94341 3.20752,1.56605 4.6415,1.86793 1.47167,0.30189 3.01884,0.45283 4.64151,0.45283 5.81129,0 10.20751,-1.92452 13.18868,-5.77359 2.98109,-3.84904 4.47165,-9.28299 4.4717,-16.30189 -5e-5,-3.47166 -0.39627,-6.54713 -1.18868,-9.22641 -0.7925,-2.71694 -1.7925,-4.86788 -3,-6.45283 -1.16985,-1.58486 -2.58495,-2.86788 -4.24528,-3.84906 -1.62268,-1.01881 -3.18872,-1.69806 -4.69811,-2.03773 -1.47174,-0.37731 -2.98117,-0.56599 -4.52831,-0.56604" />
  </g>
</svg>
