<?xml version="1.0" encoding="UTF-8" standalone="no"?>
<!-- Created with Inkscape (http://www.inkscape.org/) -->

<svg
   xmlns:dc="http://purl.org/dc/elements/1.1/"
   xmlns:cc="http://creativecommons.org/ns#"
   xmlns:rdf="http://www.w3.org/1999/02/22-rdf-syntax-ns#"
   xmlns:svg="http://www.w3.org/2000/svg"
   xmlns="http://www.w3.org/2000/svg"
   version="1.1"
   width="284.58765"
   height="96"
   id="svg3016">
  <defs
     id="defs3018" />
  <metadata
     id="metadata3021">
    <rdf:RDF>
      <cc:Work
         rdf:about="">
        <dc:format>image/svg+xml</dc:format>
        <dc:type
           rdf:resource="http://purl.org/dc/dcmitype/StillImage" />
        <dc:title></dc:title>
      </cc:Work>
    </rdf:RDF>
  </metadata>
  <g
     transform="translate(-176.80918,-311.3086)"
     id="layer1">
    <path
       d="m 205.79355,315.54298 0,8.28125 7.28125,0 0,11.375 8.0625,-8.04688 10.29688,10.3125 -8.04688,8.04688 11.39063,0 0,7.28125 8.28125,0 0,-37.25 -37.26563,0 z m 28.98438,37.25 -28.98438,0 0,-28.96875 -7.29687,0 0,11.375 -8.04688,-8.04688 -10.3125,10.3125 8.0625,8.04688 -11.39062,0 0,14.57812 11.39062,0 -8.0625,8.04688 10.3125,10.29687 8.04688,-8.0625 0,11.40625 14.57812,0 0,-11.40625 8.0625,8.0625 10.29688,-10.29687 -8.04688,-8.04688 11.39063,0 0,-7.29687 z"
       id="rect3838"
       style="fill:#2e3436;fill-opacity:1;fill-rule:nonzero;stroke:none" />
    <path
       d="m 257.28362,339.07275 c 0.0378,1.49058 0.23585,2.8019 0.59434,3.93396 0.37735,1.13209 0.84905,2.03775 1.4151,2.71699 0.56603,0.67925 1.24527,1.23585 2.03773,1.6698 0.79245,0.43398 1.57546,0.72643 2.34906,0.87737 0.77357,0.15095 1.61319,0.22642 2.51887,0.22641 4.22639,0.0188 6.8679,-1.68867 7.92453,-5.12264 l 5.26415,0 c -0.58494,3.00001 -2.04719,5.36793 -4.38679,7.10377 -2.32078,1.73585 -5.26417,2.60378 -8.83019,2.60378 -4.56605,0 -8.09435,-1.31132 -10.5849,-3.93396 -2.49057,-2.62264 -3.73585,-6.33018 -3.73585,-11.12265 0,-4.84903 1.2264,-8.71695 3.67924,-11.60377 2.47169,-2.90563 5.92452,-4.35846 10.35849,-4.35849 4.37734,3e-5 7.73583,1.43399 10.07548,4.30189 2.35846,2.84908 3.55657,6.75473 3.59434,11.71698 -4e-5,0.45284 -0.009,0.78303 -0.0283,0.99056 l -22.24529,0 m 16.83963,-4.64151 c -0.0566,-0.69809 -0.1604,-1.34903 -0.31132,-1.95283 -0.15097,-0.62262 -0.42455,-1.28299 -0.82076,-1.98113 -0.37738,-0.71696 -0.84908,-1.32073 -1.41509,-1.81132 -0.56606,-0.50941 -1.33965,-0.9245 -2.32076,-1.24528 -0.96228,-0.3396 -2.06605,-0.50941 -3.31132,-0.50944 -2.39624,3e-5 -4.3868,0.70758 -5.9717,2.12265 -1.58491,1.39624 -2.4434,3.1887 -2.57547,5.37735 l 16.72642,0"
       id="path3045"
       style="font-size:115.92453003px;font-style:normal;font-variant:normal;font-weight:normal;font-stretch:normal;text-align:start;line-height:75%;letter-spacing:-5.17520237px;word-spacing:0px;writing-mode:lr-tb;text-anchor:start;fill:#2e3436;fill-opacity:1;stroke:none;font-family:Umpush;-inkscape-font-specification:Umpush" />
    <path
       d="m 306.14886,343.60105 c -3e-5,2.8302 -1.14154,5.12265 -3.42453,6.87736 -2.26417,1.75472 -5.16039,2.63207 -8.68868,2.63208 -3.84907,0 -6.89624,-0.89623 -9.14151,-2.68868 -2.24529,-1.81132 -3.48114,-4.39622 -3.70755,-7.75472 l 5.03774,0 c 0.54716,3.90567 3.1415,5.85849 7.78302,5.85849 1.96224,0 3.60375,-0.40566 4.92452,-1.21698 1.32074,-0.81132 1.98112,-1.86792 1.98114,-3.16981 -2e-5,-0.92452 -0.28304,-1.67924 -0.84906,-2.26415 -0.56606,-0.60377 -1.35851,-1.0566 -2.37736,-1.35849 -1.01888,-0.32075 -2.06605,-0.57546 -3.14151,-0.76416 -1.07548,-0.20753 -2.32077,-0.44337 -3.73585,-0.70754 -1.39623,-0.28301 -2.56604,-0.60376 -3.50943,-0.96227 -1.00001,-0.37734 -1.86793,-0.86791 -2.60377,-1.4717 -0.71699,-0.60375 -1.26416,-1.25469 -1.64151,-1.95283 -0.3585,-0.69809 -0.62265,-1.3679 -0.79246,-2.00943 -0.15094,-0.64149 -0.22641,-1.283 -0.22641,-1.92453 0,-2.79243 1.04716,-4.93393 3.14151,-6.42453 2.09433,-1.49053 4.73584,-2.23581 7.92453,-2.23585 1.88677,4e-5 3.56602,0.22645 5.03773,0.67925 1.47168,0.45286 2.62262,1.0189 3.45283,1.69811 0.84904,0.66041 1.53771,1.42456 2.06604,2.29246 0.54715,0.84908 0.90564,1.64153 1.07547,2.37735 0.18866,0.71701 0.283,1.40569 0.28302,2.06604 l -4.98113,0 c -0.22644,-1.56601 -0.85851,-2.71695 -1.89623,-3.45283 -1.03775,-0.73582 -2.57549,-1.10375 -4.61321,-1.10377 -1.86793,2e-5 -3.37736,0.34908 -4.5283,1.04717 -1.13208,0.67927 -1.69812,1.717 -1.69811,3.11321 -1e-5,0.81134 0.30188,1.46228 0.90566,1.95283 0.60376,0.49058 1.23584,0.8302 1.89623,1.01886 0.67923,0.16983 1.90564,0.42455 3.67924,0.76416 0.11319,0.0189 0.1981,0.0378 0.25472,0.0566 3.30187,0.62266 5.59432,1.1887 6.87736,1.69811 2.77356,1.09436 4.44337,2.82077 5.00943,5.17925 0.15092,0.66039 0.22639,1.37737 0.22642,2.15094"
       id="path3047"
       style="font-size:115.92453003px;font-style:normal;font-variant:normal;font-weight:normal;font-stretch:normal;text-align:start;line-height:75%;letter-spacing:-5.17520237px;word-spacing:0px;writing-mode:lr-tb;text-anchor:start;fill:#2e3436;fill-opacity:1;stroke:none;font-family:Umpush;-inkscape-font-specification:Umpush" />
    <path
       d="m 321.67446,348.27087 c 4.92451,-0.0378 7.44338,-2.33018 7.55661,-6.87737 l 5.00943,0 c -0.11323,3.73586 -1.28304,6.62266 -3.50943,8.66039 -2.20757,2.01887 -5.20757,3.02829 -9,3.02829 -1.81134,0 -3.53775,-0.33018 -5.17925,-0.99056 -1.62265,-0.66038 -3.07548,-1.60377 -4.35849,-2.83019 -1.26415,-1.24527 -2.27359,-2.84905 -3.0283,-4.81132 -0.73585,-1.96225 -1.10377,-4.15093 -1.10377,-6.56604 0,-4.88677 1.18867,-8.74525 3.56603,-11.57547 2.39623,-2.83016 5.77358,-4.24525 10.13208,-4.24528 1.49055,3e-5 2.85847,0.15097 4.10378,0.45283 1.24525,0.30192 2.28299,0.69814 3.1132,1.18868 0.83017,0.47172 1.56602,1.0472 2.20755,1.72641 0.66035,0.66041 1.16979,1.33022 1.5283,2.00944 0.37733,0.6604 0.67922,1.36794 0.90566,2.12264 0.22639,0.73587 0.37734,1.38681 0.45283,1.95283 0.0754,0.54719 0.11318,1.07549 0.11321,1.58491 l -4.95283,0 c -0.16983,-1.7547 -0.93398,-3.2264 -2.29245,-4.4151 -1.33964,-1.20752 -3.00002,-1.81129 -4.98113,-1.81132 -2.88681,-0.0566 -5.05662,0.83965 -6.50944,2.68868 -1.43397,1.83021 -2.15095,4.55662 -2.15094,8.17925 -10e-6,1.66039 0.17924,3.13208 0.53774,4.41509 0.37735,1.28303 0.84904,2.3019 1.41509,3.0566 0.5849,0.75473 1.26414,1.36793 2.03774,1.83963 0.77357,0.4717 1.50942,0.79245 2.20754,0.96226 0.6981,0.16982 1.42452,0.25472 2.17925,0.25472"
       id="path3049"
       style="font-size:115.92453003px;font-style:normal;font-variant:normal;font-weight:normal;font-stretch:normal;text-align:start;line-height:75%;letter-spacing:-5.17520237px;word-spacing:0px;writing-mode:lr-tb;text-anchor:start;fill:#2e3436;fill-opacity:1;stroke:none;font-family:Umpush;-inkscape-font-specification:Umpush" />
    <path
       d="m 340.22837,339.75199 c -10e-6,1.39624 0.20754,2.60379 0.62264,3.62265 0.43396,1 1.00943,1.76415 1.72642,2.29245 0.73584,0.50944 1.49055,0.87736 2.26415,1.10378 0.77357,0.22642 1.59433,0.33963 2.46226,0.33962 4.81131,10e-6 7.21696,-2.40566 7.21699,-7.21699 l 0,-17.80188 5.09434,0 0,30.70755 -5.09434,0 0,-1.81132 c -1.2453,1.39623 -3.58493,2.09434 -7.01887,2.09434 -3.94341,0 -7.00001,-1.08491 -9.16981,-3.25472 -2.15095,-2.18867 -3.21699,-5.0849 -3.19812,-8.68868 l 0,-19.04717 5.09434,0 0,17.66038"
       id="path3051"
       style="font-size:115.92453003px;font-style:normal;font-variant:normal;font-weight:normal;font-stretch:normal;text-align:start;line-height:75%;letter-spacing:-5.17520237px;word-spacing:0px;writing-mode:lr-tb;text-anchor:start;fill:#2e3436;fill-opacity:1;stroke:none;font-family:Umpush;-inkscape-font-specification:Umpush" />
    <path
       d="m 369.42379,339.07275 c 0.0378,1.49058 0.23584,2.8019 0.59434,3.93396 0.37735,1.13209 0.84905,2.03775 1.4151,2.71699 0.56602,0.67925 1.24527,1.23585 2.03773,1.6698 0.79244,0.43398 1.57546,0.72643 2.34906,0.87737 0.77357,0.15095 1.6132,0.22642 2.51887,0.22641 4.2264,0.0188 6.8679,-1.68867 7.92452,-5.12264 l 5.26416,0 c -0.58493,3.00001 -2.0472,5.36793 -4.38679,7.10377 -2.32078,1.73585 -5.26417,2.60378 -8.8302,2.60378 -4.56605,0 -8.09434,-1.31132 -10.5849,-3.93396 -2.49057,-2.62264 -3.73585,-6.33018 -3.73585,-11.12265 0,-4.84903 1.22641,-8.71695 3.67925,-11.60377 2.47168,-2.90563 5.92451,-4.35846 10.35849,-4.35849 4.37734,3e-5 7.73582,1.43399 10.07547,4.30189 2.35846,2.84908 3.55658,6.75473 3.59434,11.71698 -3e-5,0.45284 -0.009,0.78303 -0.0283,0.99056 l -22.24529,0 m 16.83962,-4.64151 c -0.0566,-0.69809 -0.16039,-1.34903 -0.31132,-1.95283 -0.15096,-0.62262 -0.42455,-1.28299 -0.82075,-1.98113 -0.37738,-0.71696 -0.84908,-1.32073 -1.41509,-1.81132 -0.56606,-0.50941 -1.33965,-0.9245 -2.32076,-1.24528 -0.96228,-0.3396 -2.06605,-0.50941 -3.31132,-0.50944 -2.39624,3e-5 -4.3868,0.70758 -5.9717,2.12265 -1.58491,1.39624 -2.4434,3.1887 -2.57547,5.37735 l 16.72641,0"
       id="path3053"
       style="font-size:115.92453003px;font-style:normal;font-variant:normal;font-weight:normal;font-stretch:normal;text-align:start;line-height:75%;letter-spacing:-5.17520237px;word-spacing:0px;writing-mode:lr-tb;text-anchor:start;fill:#2e3436;fill-opacity:1;stroke:none;font-family:Umpush;-inkscape-font-specification:Umpush" />
    <path
       d="m 395.25128,352.79917 0,-41.49057 5.09434,0 0,41.49057 -5.09434,0"
       id="path3055"
       style="font-size:115.92453003px;font-style:normal;font-variant:normal;font-weight:normal;font-stretch:normal;text-align:start;line-height:75%;letter-spacing:-5.17520237px;word-spacing:0px;writing-mode:lr-tb;text-anchor:start;fill:#2e3436;fill-opacity:1;stroke:none;font-family:Umpush;-inkscape-font-specification:Umpush" />
    <path
       d="m 430.02218,340.20483 c -3e-5,4.22642 0.0849,7.06604 0.25472,8.51887 0.18865,1.43396 0.64148,2.79245 1.35849,4.07547 l -5.32076,0 c -0.52832,-1.03774 -0.86795,-2.27359 -1.01886,-3.70755 -1.62266,1.37736 -3.29247,2.45283 -5.00944,3.22641 -1.71699,0.77359 -3.73586,1.16038 -6.0566,1.16038 -1.56605,0 -2.96227,-0.18868 -4.18868,-0.56604 -1.22642,-0.37736 -2.21698,-0.85849 -2.9717,-1.44339 -0.73585,-0.58491 -1.34906,-1.26415 -1.83962,-2.03774 -0.49057,-0.79245 -0.83019,-1.5566 -1.01887,-2.29245 -0.16982,-0.75471 -0.25472,-1.50943 -0.25471,-2.26415 -10e-6,-1.20754 0.22641,-2.35848 0.67924,-3.45283 0.4717,-1.09433 1.27358,-2.1132 2.40566,-3.05661 1.13207,-0.96225 2.53773,-1.66979 4.21698,-2.12264 0.77358,-0.18866 2.82074,-0.50942 6.14151,-0.96226 3.32074,-0.47168 5.8113,-0.99055 7.4717,-1.55661 -3e-5,-0.16979 0.009,-0.37734 0.0283,-0.62264 0.0377,-0.26413 0.0566,-0.41507 0.0566,-0.45283 -2e-5,-0.0566 -0.0189,-0.14149 -0.0566,-0.25472 -2e-5,-1.96224 -0.53776,-3.47167 -1.61321,-4.5283 -1.07549,-1.05658 -2.95285,-1.58488 -5.63207,-1.5849 -2.37737,2e-5 -4.15096,0.42455 -5.32075,1.27358 -1.15096,0.84908 -1.99058,2.33021 -2.51887,4.4434 l -4.98113,-0.67925 c 1.09433,-6.16978 5.61319,-9.25468 13.5566,-9.25472 1.60375,4e-5 3.03772,0.13211 4.30189,0.39623 1.26412,0.24531 2.29243,0.5472 3.0849,0.90566 0.8113,0.35852 1.49998,0.87739 2.06604,1.55661 0.56601,0.67927 0.99054,1.28304 1.27358,1.81132 0.283,0.50946 0.49054,1.22644 0.62265,2.15094 0.15091,0.92455 0.23582,1.65097 0.25471,2.17925 0.0188,0.50945 0.0283,1.2453 0.0283,2.20754 -2e-5,0.0755 -2e-5,0.12266 0,0.14151 l 0,6.79245 m -20.63207,4.52831 c -10e-6,0.52831 0.0849,1.04717 0.25472,1.5566 0.18867,0.50944 0.49055,1.01887 0.90566,1.5283 0.43395,0.49057 1.06602,0.89623 1.89622,1.21698 0.84905,0.30189 1.84905,0.45284 3,0.45283 2.03772,10e-6 3.81131,-0.43395 5.32076,-1.30188 1.50941,-0.88679 2.60375,-2.0566 3.28302,-3.50944 0.54714,-1.18867 0.82073,-2.88678 0.82075,-5.09434 l 0,-1.86792 c -1.1321,0.47171 -2.50002,0.86794 -4.10377,1.18868 -1.58493,0.3019 -2.99058,0.54718 -4.21698,0.73585 -1.22643,0.16982 -2.41511,0.42454 -3.56604,0.76415 -1.13209,0.32076 -2.01888,0.83963 -2.66038,1.5566 -0.62265,0.69812 -0.93397,1.62265 -0.93396,2.77359"
       id="path3057"
       style="font-size:115.92453003px;font-style:normal;font-variant:normal;font-weight:normal;font-stretch:normal;text-align:start;line-height:75%;letter-spacing:-5.17520237px;word-spacing:0px;writing-mode:lr-tb;text-anchor:start;fill:#2e3436;fill-opacity:1;stroke:none;font-family:Umpush;-inkscape-font-specification:Umpush" />
    <path
       d="m 448.40627,353.08218 c -1.16983,0 -2.26416,-0.13207 -3.28302,-0.39622 -1.00001,-0.26415 -1.83963,-0.6132 -2.51887,-1.04717 -0.66038,-0.43396 -1.18869,-0.82076 -1.5849,-1.16038 -0.37737,-0.35848 -0.69812,-0.70754 -0.96227,-1.04717 l 0,3.36793 -4.72641,0 0,-41.49057 5.09434,0 0,14.80189 c 2.15093,-2.69808 4.89621,-4.04714 8.23585,-4.04717 3.90564,3e-5 6.99997,1.42456 9.28302,4.27358 2.30185,2.83022 3.4528,6.49059 3.45283,10.98113 -3e-5,3.03776 -0.49059,5.73586 -1.4717,8.09434 -0.98116,2.3585 -2.46229,4.22643 -4.4434,5.60378 -1.98115,1.37735 -4.33963,2.06604 -7.07547,2.06604 m -0.19811,-26.34906 c -2.28303,2e-5 -4.16039,1.0472 -5.63207,3.14151 -1.47171,2.09436 -2.20756,4.65096 -2.20756,7.66981 0,1.69813 0.16981,3.217 0.50944,4.55661 0.33961,1.33963 0.76414,2.40566 1.27359,3.19811 0.52829,0.79246 1.1415,1.4434 1.83962,1.95283 0.6981,0.50944 1.36791,0.85849 2.00944,1.04717 0.66036,0.18868 1.32073,0.28302 1.98113,0.28302 2.71696,-0.0189 4.82073,-1.00943 6.31132,-2.9717 1.49054,-1.98113 2.23582,-4.60376 2.23585,-7.86792 -3e-5,-1.73584 -0.18871,-3.27357 -0.56604,-4.61321 -0.35851,-1.3396 -0.82078,-2.39621 -1.38679,-3.16981 -0.56606,-0.79243 -1.23587,-1.43394 -2.00944,-1.92453 -0.7736,-0.50941 -1.50945,-0.84903 -2.20754,-1.01887 -0.69814,-0.18866 -1.41512,-0.283 -2.15095,-0.28302"
       id="path3059"
       style="font-size:115.92453003px;font-style:normal;font-variant:normal;font-weight:normal;font-stretch:normal;text-align:start;line-height:75%;letter-spacing:-5.17520237px;word-spacing:0px;writing-mode:lr-tb;text-anchor:start;fill:#2e3436;fill-opacity:1;stroke:none;font-family:Umpush;-inkscape-font-specification:Umpush" />
    <path
       d="m 279.24589,381.29917 c -3e-5,2.9434 -0.50003,5.56605 -1.5,7.86792 -1.00003,2.28302 -2.47172,4.08491 -4.4151,5.40566 -1.94341,1.32076 -4.217,1.98114 -6.82075,1.98114 -3.33964,0 -6.08492,-1.34906 -8.23585,-4.04718 l 0,14.80189 -5.09434,0 0,-41.49057 4.72642,0 0,3.36793 c 0.26414,-0.3396 0.58489,-0.67922 0.96226,-1.01887 0.39622,-0.35846 0.92452,-0.75468 1.58491,-1.18868 0.67923,-0.43393 1.51885,-0.78299 2.51886,-1.04717 1.01886,-0.26412 2.1132,-0.39619 3.28302,-0.39622 4.09432,3e-5 7.283,1.45286 9.56604,4.35848 2.28299,2.90569 3.4245,6.70758 3.42453,11.40567 m -13.4151,-11.26415 c -0.66039,2e-5 -1.32076,0.0944 -1.98113,0.28301 -0.64152,0.18871 -1.31133,0.53776 -2.00943,1.04717 -0.69813,0.50946 -1.31133,1.16041 -1.83962,1.95283 -0.50945,0.79248 -0.93398,1.85852 -1.27359,3.19812 -0.33963,1.33964 -0.50944,2.85851 -0.50943,4.5566 -10e-6,3.00001 0.7264,5.55661 2.17924,7.66982 1.47169,2.09434 3.35848,3.14151 5.66038,3.14151 0.73583,0 1.45281,-0.0849 2.15094,-0.25472 0.6981,-0.18868 1.43395,-0.5283 2.20755,-1.01887 0.77356,-0.50943 1.44337,-1.15094 2.00943,-1.92453 0.56602,-0.79244 1.02828,-1.85848 1.3868,-3.19812 0.37733,-1.33961 0.56601,-2.87734 0.56603,-4.6132 -2e-5,-1.43395 -0.16983,-2.783 -0.50943,-4.04717 -0.32078,-1.26413 -0.81134,-2.40564 -1.4717,-3.42453 -0.6604,-1.03771 -1.55662,-1.85846 -2.68868,-2.46226 -1.11322,-0.60375 -2.40567,-0.90564 -3.87736,-0.90566"
       id="path3061"
       style="font-size:115.92453003px;font-style:normal;font-variant:normal;font-weight:normal;font-stretch:normal;text-align:start;line-height:75%;letter-spacing:-5.17520237px;word-spacing:0px;writing-mode:lr-tb;text-anchor:start;fill:#2e3436;fill-opacity:1;stroke:none;font-family:Umpush;-inkscape-font-specification:Umpush" />
    <path
       d="m 287.44131,383.2237 c -10e-6,1.39623 0.20754,2.60378 0.62265,3.62263 0.43394,1.00001 1.00941,1.76417 1.72641,2.29246 0.73583,0.50944 1.49055,0.87736 2.26415,1.10378 0.77357,0.22641 1.59432,0.33962 2.46227,0.33961 4.81129,1e-5 7.21695,-2.40565 7.21697,-7.21698 l 0,-17.80188 5.09434,0 0,30.70754 -5.09434,0 0,-1.81132 c -1.2453,1.39623 -3.58492,2.09434 -7.01886,2.09434 -3.94341,0 -7.00001,-1.0849 -9.16981,-3.25471 -2.15096,-2.18867 -3.21699,-5.0849 -3.19812,-8.68868 l 0,-19.04717 5.09434,0 0,17.66037"
       id="path3063"
       style="font-size:115.92453003px;font-style:normal;font-variant:normal;font-weight:normal;font-stretch:normal;text-align:start;line-height:75%;letter-spacing:-5.17520237px;word-spacing:0px;writing-mode:lr-tb;text-anchor:start;fill:#2e3436;fill-opacity:1;stroke:none;font-family:Umpush;-inkscape-font-specification:Umpush" />
    <path
       d="m 325.94805,371.3086 c -2.66039,2e-5 -4.65095,0.84908 -5.9717,2.54717 -1.32076,1.69813 -1.98114,4.15097 -1.98113,7.35849 l 0,15.0566 -5.09434,0 0,-30.1132 5.09434,0 0,2.91509 c 0.88678,-1.16978 2.05659,-2.04714 3.50944,-2.63208 1.45281,-0.60373 2.97168,-0.90563 4.5566,-0.90566 1.73583,3e-5 3.283,0.25475 4.64151,0.76416 1.35846,0.50946 2.44337,1.1604 3.25472,1.95282 0.83016,0.79249 1.50941,1.73589 2.03773,2.83019 0.52828,1.0755 0.88676,2.13211 1.07547,3.16981 0.20752,1.03777 0.3113,2.11323 0.31133,3.22642 l 0,18.79245 -5.09434,0 0,-17.66037 c -3e-5,-4.86791 -2.11323,-7.30187 -6.33963,-7.30189"
       id="path3065"
       style="font-size:115.92453003px;font-style:normal;font-variant:normal;font-weight:normal;font-stretch:normal;text-align:start;line-height:75%;letter-spacing:-5.17520237px;word-spacing:0px;writing-mode:lr-tb;text-anchor:start;fill:#2e3436;fill-opacity:1;stroke:none;font-family:Umpush;-inkscape-font-specification:Umpush" />
    <path
       d="m 354.77554,396.58218 c -4.50944,0 -7.99057,-1.33961 -10.44339,-4.01886 -2.43397,-2.69811 -3.65095,-6.47169 -3.65095,-11.32075 0,-4.83018 1.22642,-8.65093 3.67925,-11.46227 2.47169,-2.83016 5.94338,-4.24526 10.41509,-4.24528 4.33961,3e-5 7.76413,1.38682 10.27359,4.16038 2.52827,2.75474 3.79242,6.46228 3.79245,11.12263 -2e-5,2.35851 -0.26418,4.46228 -0.79245,6.31133 -0.50946,1.83019 -1.19814,3.33019 -2.06604,4.5 -0.86795,1.16981 -1.92455,2.14151 -3.16981,2.91509 -1.22644,0.75472 -2.50002,1.28302 -3.82075,1.58491 -1.30191,0.30188 -2.70757,0.45282 -4.21699,0.45282 m 0,-26.57547 c -2.8868,3e-5 -5.08491,1.00003 -6.59434,3 -1.50944,2.00003 -2.26415,4.74531 -2.26415,8.23586 0,1.79246 0.19811,3.36793 0.59434,4.72641 0.39623,1.33963 0.88679,2.3868 1.4717,3.14151 0.60377,0.75472 1.32075,1.36793 2.15095,1.83962 0.83017,0.47171 1.60376,0.78303 2.32075,0.93397 0.73583,0.15094 1.50942,0.22641 2.32075,0.22641 2.90565,0 5.10376,-0.96226 6.59434,-2.88679 1.49055,-1.92453 2.23583,-4.6415 2.23585,-8.15095 -2e-5,-1.73583 -0.19813,-3.27356 -0.59434,-4.6132 -0.39625,-1.35847 -0.89625,-2.43394 -1.5,-3.22642 -0.58492,-0.79243 -1.29247,-1.43394 -2.12264,-1.92453 -0.81133,-0.5094 -1.59436,-0.84903 -2.34905,-1.01887 -0.73587,-0.18865 -1.49059,-0.28299 -2.26416,-0.28302"
       id="path3067"
       style="font-size:115.92453003px;font-style:normal;font-variant:normal;font-weight:normal;font-stretch:normal;text-align:start;line-height:75%;letter-spacing:-5.17520237px;word-spacing:0px;writing-mode:lr-tb;text-anchor:start;fill:#2e3436;fill-opacity:1;stroke:none;font-family:Umpush;-inkscape-font-specification:Umpush" />
  </g>
</svg>
